# Blender v2.79 (sub 0) OBJ File: 'coco.blend'
# www.blender.org
mtllib coco.mtl
o Plane_Plane.000
v -2.760782 0.438378 -3.878509
v -1.585924 0.510063 -4.524126
v -2.759584 0.478481 -4.235094
v 0.194572 -0.480378 4.269920
v 0.201565 -0.489376 4.349876
v 1.079601 -0.545581 4.843474
v -2.825864 0.363142 -3.209092
v -1.535202 0.047668 -0.413095
v -2.746104 0.363079 -3.209095
v -1.314911 0.349250 -3.096151
v -0.125508 0.379442 -3.372934
v -0.359645 0.400384 -3.557498
v -1.157630 0.471756 -4.186518
v -0.745228 0.434871 -3.861437
v 0.377018 0.439816 -3.913270
v 4.445593 0.687726 -6.146050
v 4.434057 0.672056 -6.006636
v 2.964342 0.456891 -4.083204
v 2.984420 0.273901 -2.456286
v 3.345346 0.279687 -2.510264
v 2.999501 0.194506 -1.750455
v 3.345671 0.199216 -1.794752
v -1.715120 0.039570 -0.339826
v -4.873823 0.033109 -0.260259
v 4.458256 -0.659356 5.831457
v 4.170453 -0.641334 5.673223
v 4.455392 -0.659814 5.835543
v 4.443113 -0.141894 1.230541
v 3.299291 0.044239 -0.416456
v 4.169089 -0.640259 5.663673
v 4.179375 -0.648354 5.735581
v 4.435667 -0.662964 5.863688
v 4.238040 -0.694521 6.145669
v 4.312417 -0.682645 6.039546
v 4.220838 -0.680983 6.025409
v 0.052228 -0.374240 3.327194
v -0.721908 -0.331530 2.952852
v -0.208106 -0.381476 3.393349
v 0.039470 -0.367522 3.267550
v -1.205061 -0.292697 2.610955
v 0.917137 -0.262771 2.330008
v 0.082368 -0.370355 3.292440
v 3.785895 -0.625924 5.538900
v 1.901628 -0.692693 6.145771
v 3.631501 -0.606379 5.366198
v 3.604660 -0.602981 5.336175
v -1.385125 0.397629 -3.525820
v -1.336932 0.378825 -3.358960
v -3.183555 0.516346 -4.568801
v -3.107999 0.498928 -4.414457
v 2.742639 0.318567 -2.851742
v 2.108985 0.179587 -1.611566
v -1.475103 0.040061 -0.345871
v -0.733546 0.041577 -0.364550
v -0.751513 0.051086 -0.448970
v 3.345914 0.068955 -0.636542
v -4.718528 -0.035980 0.352957
v -4.626187 -0.067017 0.628277
v 3.558728 0.082798 -0.761119
v 3.654940 0.104878 -0.958114
v -1.525944 0.046496 -0.402737
v -1.488350 0.047873 -0.415239
v -4.568037 0.233139 -2.040970
v -4.957759 0.088536 -0.752502
v -0.496632 -0.083803 0.748614
v 0.134427 -0.417775 3.713712
v 1.513358 -0.604566 5.364904
v 1.653277 -0.634389 5.629097
v 2.646979 0.449820 -4.018112
v 4.273119 0.589590 -5.272261
v 4.422504 0.656365 -5.867043
v -1.666076 0.419430 -3.717701
v -1.418397 0.431904 -3.830346
v -1.825607 0.390467 -3.459055
v -1.845990 0.416220 -3.687899
v -2.733500 0.393096 -3.476077
v -0.096054 -0.393350 3.498149
v -0.793514 0.073314 -0.646313
v -3.290941 -0.144293 1.306024
v -2.348959 -0.204708 1.836608
v -2.809355 0.471449 -4.172223
v -2.833624 0.462414 -4.091714
v -2.831634 0.450651 -3.987140
v -2.732448 0.416635 -3.685380
v 0.135122 -0.428723 3.811049
v 0.117626 -0.441221 3.922292
v 0.131617 -0.448269 3.984865
v 0.180585 -0.464337 4.127391
v 1.139071 -0.547191 4.857377
v 0.771749 -0.561760 4.989494
v 0.943166 -0.554857 4.926912
v 0.390446 -0.549733 4.885221
v 0.631820 -0.562824 4.999929
v 0.516379 -0.559606 4.972123
v 0.208540 -0.543335 4.829607
v 0.320482 -0.548505 4.874794
v 0.142078 -0.533118 4.739226
v 0.114096 -0.524495 4.662748
v 0.124594 -0.514338 4.572363
v 0.135095 -0.498316 4.429834
v 0.093112 -0.507666 4.513268
v 0.145594 -0.489332 4.349879
v -1.498186 0.354830 -3.144486
v -1.817226 0.356211 -3.154531
v -1.712278 0.357537 -3.167050
v -3.900528 0.347093 -3.058867
v -3.493326 0.366479 -3.234092
v -3.766191 0.358717 -3.163163
v -3.023164 0.365642 -3.229940
v -3.287629 0.367256 -3.242443
v 4.430593 0.667353 -5.964794
v -3.643066 0.694056 -6.145695
v 3.344567 0.467087 -4.176529
v 4.623434 -0.625744 5.531438
v 4.753581 -0.591597 5.226907
v 4.854348 -0.547575 4.834774
v 4.942533 -0.473046 4.171489
v 4.946778 -0.352474 3.099390
v 4.904817 -0.305994 2.686404
v 4.804090 -0.247739 2.169133
v 4.661381 -0.199772 1.743638
v 4.216449 -0.088232 0.754991
v 3.964592 -0.037832 0.308624
v 3.532240 0.031002 -0.300391
v 3.343343 0.049917 -0.467244
v -1.719295 -0.251366 2.247063
v -1.405810 0.415004 -3.680168
v -3.611685 0.653677 -5.786885
v -3.590702 0.640055 -5.665911
v -3.506757 0.608086 -5.382247
v -3.087014 0.489997 -4.335198
v -3.036641 0.486673 -4.305998
v -2.994663 0.486171 -4.301828
v 2.692306 0.423324 -3.782837
v 2.677105 0.200389 -1.800500
v 2.677113 0.220656 -1.980712
v 2.707356 0.263421 -2.361163
v 2.747692 0.356847 -3.192144
v 2.732591 0.386698 -3.457456
v 2.727481 0.200912 -1.805508
v 2.838305 0.199699 -1.795501
v 3.404219 0.069235 -0.639441
v 3.474185 0.072764 -0.671311
v 3.611204 0.085038 -0.781400
v 3.654937 0.100968 -0.923352
v 3.520831 0.077615 -0.714767
v 3.422090 0.195082 -1.758532
v 3.494629 0.185786 -1.676389
v 3.530054 0.178405 -1.611009
v 3.541860 0.170666 -1.542275
v 3.643075 0.154937 -1.403132
v 3.612712 0.164011 -1.483601
v 3.644756 0.138532 -1.257280
v 3.643071 0.144567 -1.310927
v 3.730791 0.126775 -1.153342
v 3.702113 0.131511 -1.195253
v 3.733656 0.119478 -1.088480
v 3.654934 0.089239 -0.819062
v 3.669511 0.095418 -0.874104
v 3.695755 0.112014 -1.021850
v -4.152411 0.322424 -2.837761
v -4.290950 0.301420 -2.650035
v -4.479869 0.262627 -2.303785
v -4.764599 0.234295 -2.049873
v -4.936726 0.200650 -1.749512
v -4.542844 0.246725 -2.161949
v -4.957731 0.159849 -1.386584
v -4.865348 0.234374 -2.049869
v 1.324467 -0.573531 5.090284
v 3.874111 0.482887 -4.320721
v 4.091751 0.537035 -4.803701
v 4.403708 0.630834 -5.639899
v -1.502358 0.425401 -3.771938
v -1.817215 0.382954 -3.392310
v -1.817206 0.406881 -3.605061
v -3.955870 -0.105489 0.965651
v -4.517045 -0.077894 0.724218
vt 0.776040 0.184515
vt 0.658581 0.132005
vt 0.775922 0.155510
vt 0.480528 0.847313
vt 0.479828 0.853817
vt 0.392040 0.893969
vt 0.782544 0.238961
vt 0.653415 0.466309
vt 0.774570 0.238964
vt 0.629659 0.248155
vt 0.511121 0.225646
vt 0.534428 0.210633
vt 0.615759 0.159467
vt 0.573727 0.185910
vt 0.460991 0.181698
vt 0.055557 0.000100
vt 0.056709 0.011440
vt 0.203171 0.167885
vt 0.201296 0.300219
vt 0.165369 0.295829
vt 0.199907 0.357630
vt 0.165348 0.352420
vt 0.671418 0.472283
vt 0.987286 0.478813
vt 0.054238 0.974343
vt 0.083013 0.961471
vt 0.054524 0.974675
vt 0.051808 0.607062
vt 0.169982 0.465958
vt 0.083149 0.960695
vt 0.082121 0.966544
vt 0.056496 0.976965
vt 0.076254 0.999900
vt 0.068818 0.991268
vt 0.077974 0.990118
vt 0.494764 0.770632
vt 0.572163 0.740180
vt 0.520792 0.776012
vt 0.496039 0.765780
vt 0.620471 0.712369
vt 0.408254 0.689478
vt 0.491750 0.767805
vt 0.121462 0.950544
vt 0.309848 0.999900
vt 0.136899 0.936496
vt 0.139583 0.934054
vt 0.639310 0.213207
vt 0.634694 0.226779
vt 0.818312 0.128365
vt 0.810757 0.140920
vt 0.225412 0.268051
vt 0.288516 0.368790
vt 0.647417 0.471786
vt 0.573262 0.470253
vt 0.575044 0.463374
vt 0.165291 0.448029
vt 0.971757 0.528692
vt 0.962524 0.551087
vt 0.144049 0.437891
vt 0.134451 0.421855
vt 0.652491 0.467153
vt 0.648730 0.466134
vt 0.956722 0.333972
vt 0.995680 0.438774
vt 0.549595 0.560826
vt 0.486544 0.802071
vt 0.348671 0.936383
vt 0.334681 0.957873
vt 0.234809 0.173178
vt 0.072643 0.071173
vt 0.057697 0.022794
vt 0.666588 0.197598
vt 0.641830 0.188437
vt 0.682539 0.218635
vt 0.682957 0.201330
vt 0.773311 0.217248
vt 0.509588 0.784537
vt 0.579154 0.447332
vt 0.829023 0.606219
vt 0.734841 0.649380
vt 0.780898 0.160624
vt 0.783324 0.167172
vt 0.783124 0.175678
vt 0.773207 0.200223
vt 0.486474 0.809989
vt 0.488223 0.819037
vt 0.486823 0.824127
vt 0.481927 0.835720
vt 0.386094 0.895100
vt 0.422819 0.905845
vt 0.405681 0.900756
vt 0.460942 0.897362
vt 0.436809 0.906693
vt 0.448351 0.904431
vt 0.479129 0.892838
vt 0.467937 0.896514
vt 0.485774 0.885486
vt 0.488572 0.879265
vt 0.487523 0.871914
vt 0.486474 0.860320
vt 0.490671 0.867107
vt 0.485425 0.853817
vt 0.649810 0.243405
vt 0.681702 0.243405
vt 0.671144 0.242390
vt 0.889988 0.251180
vt 0.849277 0.236928
vt 0.876558 0.242697
vt 0.802270 0.237268
vt 0.828712 0.236250
vt 0.057055 0.014843
vt 0.864261 0.000100
vt 0.165274 0.160296
vt 0.037694 0.949990
vt 0.024683 0.925221
vt 0.014618 0.893313
vt 0.005815 0.839344
vt 0.005355 0.752211
vt 0.009477 0.718749
vt 0.019269 0.677165
vt 0.032839 0.643780
vt 0.050304 0.610946
vt 0.103570 0.525048
vt 0.146732 0.475430
vt 0.165576 0.461824
vt 0.671885 0.682768
vt 0.640569 0.200652
vt 0.861122 0.029285
vt 0.859023 0.039125
vt 0.850629 0.062199
vt 0.808659 0.147367
vt 0.803622 0.149742
vt 0.799425 0.150081
vt 0.230337 0.192318
vt 0.232050 0.353560
vt 0.232004 0.338903
vt 0.228967 0.307956
vt 0.224716 0.240364
vt 0.226328 0.218783
vt 0.226988 0.353154
vt 0.215922 0.353967
vt 0.159472 0.447795
vt 0.152495 0.445202
vt 0.138815 0.436247
vt 0.134448 0.424686
vt 0.147835 0.441665
vt 0.157720 0.356089
vt 0.147673 0.363161
vt 0.146983 0.368479
vt 0.145785 0.374152
vt 0.135658 0.385558
vt 0.138669 0.378962
vt 0.135490 0.397494
vt 0.135664 0.393107
vt 0.126900 0.405980
vt 0.129758 0.402559
vt 0.126607 0.411257
vt 0.134447 0.433186
vt 0.132999 0.428700
vt 0.130382 0.416671
vt 0.915171 0.269163
vt 0.929021 0.284433
vt 0.947908 0.312596
vt 0.976374 0.333248
vt 0.993582 0.357678
vt 0.954203 0.324132
vt 0.995680 0.387198
vt 0.986447 0.333248
vt 0.367558 0.914045
vt 0.112497 0.148569
vt 0.090762 0.109285
vt 0.059593 0.041270
vt 0.650221 0.193187
vt 0.681700 0.224065
vt 0.681701 0.206760
vt 0.895504 0.578531
vt 0.951611 0.558891
vn 0.0008 0.9937 0.1118
vn 0.0008 0.9937 0.1117
usemtl Material
s 1
f 1/1/1 2/2/1 3/3/1
f 4/4/1 5/5/1 6/6/1
f 7/7/1 8/8/1 9/9/1
f 10/10/1 11/11/1 12/12/1
f 13/13/1 14/14/1 15/15/1
f 16/16/1 2/2/1 17/17/1
f 18/18/1 19/19/1 20/20/1
f 21/21/1 22/22/1 20/20/1
f 23/23/1 8/8/1 24/24/1
f 25/25/1 26/26/1 27/27/2
f 28/28/1 29/29/1 30/30/1
f 27/27/2 31/31/1 32/32/1
f 33/33/1 34/34/1 35/35/1
f 36/36/1 37/37/1 38/38/1
f 39/39/1 40/40/1 36/36/1
f 41/41/1 39/39/1 42/42/1
f 26/26/1 43/43/1 31/31/1
f 35/35/1 32/32/1 31/31/1
f 35/35/1 44/44/1 33/33/1
f 30/30/1 45/45/1 26/26/1
f 29/29/1 46/46/1 30/30/1
f 14/14/1 47/47/1 48/48/1
f 49/49/1 50/50/1 3/3/1
f 51/51/1 11/11/1 52/52/1
f 11/11/1 15/15/1 12/12/1
f 13/13/1 17/17/1 2/2/1
f 53/53/1 54/54/1 55/55/1
f 52/52/1 55/55/1 56/56/1
f 23/23/1 57/57/1 58/58/1
f 59/59/1 60/60/1 56/56/1
f 46/46/1 41/41/1 42/42/1
f 43/43/1 35/35/1 31/31/1
f 8/8/1 61/61/1 62/62/1
f 63/63/1 64/64/1 8/8/1
f 53/53/1 65/65/1 54/54/1
f 46/46/1 36/36/1 45/45/1
f 53/53/1 61/61/1 23/23/1
f 45/45/1 66/66/1 43/43/1
f 67/67/1 68/68/1 43/43/1
f 15/15/1 14/14/1 12/12/1
f 69/69/1 70/70/1 71/71/1
f 13/13/1 72/72/1 73/73/1
f 74/74/1 75/75/1 76/76/1
f 66/66/1 36/36/1 77/77/1
f 55/55/1 78/78/1 62/62/1
f 65/65/1 29/29/1 54/54/1
f 39/39/1 36/36/1 42/42/1
f 78/78/1 11/11/1 10/10/1
f 23/23/1 79/79/1 80/80/1
f 54/54/1 56/56/1 55/55/1
f 3/3/1 81/81/1 82/82/1
f 82/82/1 83/83/1 1/1/1
f 1/1/1 84/84/1 2/2/1
f 13/13/1 2/2/1 84/84/1
f 3/3/1 82/82/1 1/1/1
f 85/85/1 86/86/1 87/87/1
f 85/85/1 87/87/1 88/88/1
f 89/89/1 66/66/1 6/6/1
f 90/90/1 91/91/1 92/92/1
f 6/6/1 66/66/1 85/85/1
f 6/6/1 85/85/1 88/88/1
f 93/93/1 90/90/1 92/92/1
f 92/92/1 94/94/1 93/93/1
f 95/95/1 96/96/1 97/97/1
f 98/98/1 97/97/1 99/99/1
f 100/100/1 101/101/1 99/99/1
f 99/99/1 97/97/1 96/96/1
f 92/92/1 91/91/1 5/5/1
f 99/99/1 96/96/1 92/92/1
f 102/102/1 100/100/1 5/5/1
f 5/5/1 100/100/1 99/99/1
f 99/99/1 92/92/1 5/5/1
f 6/6/1 88/88/1 4/4/1
f 5/5/1 91/91/1 6/6/1
f 10/10/1 103/103/1 104/104/1
f 104/104/1 8/8/1 10/10/1
f 103/103/1 105/105/1 104/104/1
f 62/62/1 78/78/1 10/10/1
f 106/106/1 8/8/1 7/7/1
f 107/107/1 108/108/1 106/106/1
f 109/109/1 110/110/1 106/106/1
f 10/10/1 8/8/1 62/62/1
f 7/7/1 109/109/1 106/106/1
f 107/107/1 106/106/1 110/110/1
f 104/104/1 9/9/1 8/8/1
f 15/15/1 71/71/1 111/111/1
f 111/111/1 13/13/1 15/15/1
f 16/16/1 112/112/1 2/2/1
f 21/21/1 20/20/1 19/19/1
f 113/113/1 18/18/1 20/20/1
f 23/23/1 61/61/1 8/8/1
f 25/25/1 30/30/1 26/26/1
f 30/30/1 25/25/1 114/114/1
f 114/114/1 115/115/1 30/30/1
f 116/116/1 117/117/1 30/30/1
f 118/118/1 119/119/1 30/30/1
f 120/120/1 121/121/1 119/119/1
f 28/28/1 122/122/1 29/29/1
f 123/123/1 124/124/1 29/29/1
f 125/125/1 29/29/1 124/124/1
f 30/30/1 115/115/1 116/116/1
f 117/117/1 118/118/1 30/30/1
f 121/121/1 28/28/1 30/30/1
f 123/123/1 29/29/1 122/122/1
f 30/30/1 119/119/1 121/121/1
f 27/27/2 26/26/1 31/31/1
f 38/38/1 77/77/1 36/36/1
f 36/36/1 40/40/1 37/37/1
f 39/39/1 126/126/1 40/40/1
f 41/41/1 65/65/1 39/39/1
f 26/26/1 45/45/1 43/43/1
f 35/35/1 34/34/1 32/32/1
f 35/35/1 68/68/1 44/44/1
f 30/30/1 46/46/1 45/45/1
f 29/29/1 41/41/1 46/46/1
f 10/10/1 12/12/1 48/48/1
f 14/14/1 73/73/1 127/127/1
f 127/127/1 47/47/1 14/14/1
f 48/48/1 12/12/1 14/14/1
f 3/3/1 2/2/1 49/49/1
f 112/112/1 128/128/1 2/2/1
f 129/129/1 130/130/1 2/2/1
f 50/50/1 131/131/1 132/132/1
f 130/130/1 49/49/1 2/2/1
f 2/2/1 128/128/1 129/129/1
f 50/50/1 132/132/1 133/133/1
f 133/133/1 3/3/1 50/50/1
f 69/69/1 11/11/1 134/134/1
f 52/52/1 135/135/1 136/136/1
f 136/136/1 137/137/1 52/52/1
f 51/51/1 138/138/1 11/11/1
f 139/139/1 134/134/1 11/11/1
f 11/11/1 138/138/1 139/139/1
f 137/137/1 51/51/1 52/52/1
f 11/11/1 69/69/1 15/15/1
f 13/13/1 111/111/1 17/17/1
f 55/55/1 62/62/1 53/53/1
f 61/61/1 53/53/1 62/62/1
f 52/52/1 78/78/1 55/55/1
f 23/23/1 24/24/1 57/57/1
f 140/140/1 135/135/1 141/141/1
f 52/52/1 56/56/1 135/135/1
f 142/142/1 143/143/1 56/56/1
f 59/59/1 144/144/1 145/145/1
f 143/143/1 146/146/1 56/56/1
f 135/135/1 56/56/1 21/21/1
f 21/21/1 141/141/1 135/135/1
f 147/147/1 22/22/1 148/148/1
f 149/149/1 148/148/1 150/150/1
f 151/151/1 152/152/1 150/150/1
f 150/150/1 148/148/1 22/22/1
f 21/21/1 56/56/1 153/153/1
f 150/150/1 22/22/1 21/21/1
f 154/154/1 151/151/1 150/150/1
f 155/155/1 156/156/1 157/157/1
f 153/153/1 154/154/1 150/150/1
f 150/150/1 21/21/1 153/153/1
f 144/144/1 158/158/1 159/159/1
f 56/56/1 60/60/1 153/153/1
f 157/157/1 156/156/1 160/160/1
f 56/56/1 146/146/1 59/59/1
f 144/144/1 159/159/1 145/145/1
f 60/60/1 160/160/1 153/153/1
f 59/59/1 145/145/1 60/60/1
f 160/160/1 156/156/1 153/153/1
f 24/24/1 8/8/1 64/64/1
f 106/106/1 161/161/1 162/162/1
f 162/162/1 163/163/1 8/8/1
f 63/63/1 164/164/1 165/165/1
f 163/163/1 166/166/1 63/63/1
f 8/8/1 106/106/1 162/162/1
f 167/167/1 64/64/1 63/63/1
f 168/168/1 165/165/1 164/164/1
f 8/8/1 163/163/1 63/63/1
f 63/63/1 165/165/1 167/167/1
f 46/46/1 42/42/1 36/36/1
f 45/45/1 36/36/1 66/66/1
f 43/43/1 66/66/1 89/89/1
f 43/43/1 89/89/1 169/169/1
f 68/68/1 35/35/1 43/43/1
f 43/43/1 169/169/1 67/67/1
f 71/71/1 15/15/1 69/69/1
f 69/69/1 18/18/1 70/70/1
f 113/113/1 170/170/1 171/171/1
f 171/171/1 70/70/1 113/113/1
f 172/172/1 71/71/1 70/70/1
f 18/18/1 113/113/1 70/70/1
f 73/73/1 14/14/1 13/13/1
f 13/13/1 84/84/1 75/75/1
f 75/75/1 72/72/1 13/13/1
f 173/173/1 73/73/1 72/72/1
f 76/76/1 9/9/1 174/174/1
f 104/104/1 174/174/1 9/9/1
f 74/74/1 175/175/1 75/75/1
f 75/75/1 84/84/1 76/76/1
f 76/76/1 174/174/1 74/74/1
f 125/125/1 54/54/1 29/29/1
f 65/65/1 41/41/1 29/29/1
f 78/78/1 52/52/1 11/11/1
f 126/126/1 39/39/1 65/65/1
f 65/65/1 53/53/1 23/23/1
f 23/23/1 58/58/1 176/176/1
f 58/58/1 177/177/1 176/176/1
f 126/126/1 65/65/1 80/80/1
f 80/80/1 65/65/1 23/23/1
f 23/23/1 176/176/1 79/79/1
f 54/54/1 125/125/1 56/56/1
